<svg width="41" height="40" viewBox="0 0 41 40" fill="none" xmlns="http://www.w3.org/2000/svg">
<path d="M34.3201 0H5.96036C2.72049 0 0.0847168 2.62848 0.0847168 5.85938V34.1406C0.0847168 37.3715 2.72049 40 5.96036 40H34.3201C37.56 40 40.1958 37.3715 40.1958 34.1406V5.85938C40.1958 2.62848 37.56 0 34.3201 0ZM37.8455 34.1406C37.8455 36.0791 36.264 37.6562 34.3201 37.6562H5.96036C4.0165 37.6562 2.43497 36.0791 2.43497 34.1406V5.85938C2.43497 3.9209 4.0165 2.34375 5.96036 2.34375H34.3201C36.264 2.34375 37.8455 3.9209 37.8455 5.85938V34.1406Z" fill="#070707" stroke="#070707" stroke-width="0.5"/>
</svg>
